Coordinates
version=1
nRows=22
nColumns=24
inDegrees=yes

Units are S.I. units (second, meters, Newtons, ...)
Angles are in degrees.

endheader
time	pelvis_tilt	pelvis_list	pelvis_rotation	pelvis_tx	pelvis_ty	pelvis_tz	hip_flexion_r	hip_adduction_r	hip_rotation_r	knee_angle_r	ankle_angle_r	subtalar_angle_r	mtp_angle_r	hip_flexion_l	hip_adduction_l	hip_rotation_l	knee_angle_l	ankle_angle_l	subtalar_angle_l	mtp_angle_l	lumbar_extension	lumbar_bending	lumbar_rotation
      3.09500000	     10.37642879	      7.37925806	     -7.22147879	     -0.69658551	      0.97720593	      0.06980122	    -13.34603813	     -8.44174630	     -9.24092816	    -21.04855093	     18.84305065	      4.38078547	      1.71537729	     12.38212355	      6.56191696	    -26.48337705	     -3.36768378	     -1.81105703	     15.18242905	     36.24122861	    -26.81019402	     -9.67394301	     -0.67251706
      3.10000000	     10.46151529	      7.45585670	     -7.24510058	     -0.69116192	      0.97682676	      0.06932793	    -13.80590476	     -8.58857462	     -9.26154618	    -21.00766226	     18.87786340	      4.34124592	      1.76327837	     12.28984407	      6.67113430	    -26.14782938	     -3.85628085	     -1.86956851	     14.34291901	     36.25674102	    -26.86438074	     -9.80383147	     -0.68987680
      3.10500000	     10.52811912	      7.55929624	     -7.21660809	     -0.68567732	      0.97646577	      0.06872620	    -14.25632923	     -8.76106704	     -9.37764481	    -20.97239291	     18.87958982	      4.36662355	      1.91947393	     12.20065444	      6.83439719	    -25.72680511	     -4.30353482	     -2.02925232	     13.45491714	     36.38792888	    -26.90071636	     -9.93443900	     -0.78609887
      3.11000000	     10.58364118	      7.66931250	     -7.13405716	     -0.68013196	      0.97611740	      0.06801176	    -14.71065207	     -8.93609244	     -9.59042223	    -20.93808828	     18.83682788	      4.46875820	      2.44753664	     12.11335994	      7.02342447	    -25.25217724	     -4.72736652	     -2.24934584	     12.59662422	     36.99490888	    -26.92855984	    -10.04476504	     -0.94470727
      3.11500000	     10.67205808	      7.78479411	     -7.16633649	     -0.67462804	      0.97587482	      0.06748009	    -15.15170858	     -9.13063866	     -9.59738824	    -20.92451361	     18.61299425	      4.34752300	      3.61956348	     11.95903746	      7.21461316	    -24.96624183	     -5.05239895	     -2.68108360	     11.75038351	     38.24491843	    -26.98177556	    -10.21508583	     -0.98196822
      3.12000000	     10.65566406	      7.89320806	     -7.12503587	     -0.66917389	      0.97553654	      0.06682052	    -15.45543287	     -9.29715995	     -9.66003146	    -20.98718331	     18.51090853	      4.30106378	      3.89663327	     11.93313137	      7.39490290	    -24.54813232	     -5.41537134	     -2.98492471	     10.95620068	     38.38046781	    -26.93810318	    -10.34025767	     -1.08052991
      3.12500000	     10.67182912	      8.04011625	     -7.05757007	     -0.66362518	      0.97529435	      0.06609502	    -15.80940692	     -9.50515282	     -9.79193817	    -21.03744576	     18.35915378	      4.25607919	      4.63498112	     11.84317290	      7.64049297	    -24.13278046	     -5.70073169	     -3.43431214	     10.18564041	     38.99354176	    -26.92493300	    -10.49311764	     -1.21011782
      3.13000000	     10.68655269	      8.14753343	     -7.10246876	     -0.65818978	      0.97513212	      0.06553741	    -16.08118013	     -9.69330486	     -9.70489079	    -21.16883210	     18.14314165	      4.13067646	      5.00791637	     11.75435413	      7.82076513	    -23.86953686	     -5.98302937	     -3.82178818	      9.45078158	     39.24711155	    -26.90820137	    -10.65402089	     -1.19134345
      3.13500000	     10.69628681	      8.31132052	     -7.07679427	     -0.65266670	      0.97501886	      0.06487543	    -16.34715285	     -9.93137408	     -9.74429506	    -21.32985505	     17.73164527	      3.95687868	      6.83598207	     11.65377709	      8.07436581	    -23.58114467	     -6.21002137	     -4.39536041	      8.78606645	     40.75359943	    -26.88901553	    -10.84509096	     -1.32252049
      3.14000000	     10.66485410	      8.45062994	     -7.08285820	     -0.64723916	      0.97492200	      0.06424311	    -16.49888536	    -10.14992211	     -9.68523849	    -21.60003595	     17.50415265	      3.80063688	      7.03304210	     11.60948303	      8.28451840	    -23.29953493	     -6.48003232	     -4.78282915	      8.19042050	     40.77871429	    -26.83210546	    -11.02057943	     -1.36249615
      3.14500000	     10.65239436	      8.61009051	     -7.04472206	     -0.64171637	      0.97492576	      0.06353514	    -16.68318415	    -10.38730486	     -9.70337155	    -21.85626178	     17.00142894	      3.61437101	      8.94313303	     11.53763226	      8.52703966	    -23.00293412	     -6.73794592	     -5.29209314	      7.49555459	     41.87910069	    -26.79606742	    -11.19782540	     -1.48469540
      3.15000000	     10.57780622	      8.75713391	     -7.00875258	     -0.63627940	      0.97492162	      0.06282649	    -16.72687518	    -10.61157544	     -9.66588530	    -22.24044987	     16.65523236	      3.45140827	      9.38287208	     11.55584944	      8.73464609	    -22.69183009	     -7.06196826	     -5.65866390	      6.84798970	     41.97759791	    -26.70190098	    -11.36110904	     -1.53918651
      3.15500000	     10.52348731	      8.92230175	     -6.96247056	     -0.63082790	      0.97500724	      0.06207400	    -16.75297017	    -10.86259942	     -9.62163763	    -22.69016314	     16.14105775	      3.25253476	     10.79554853	     11.54442021	      8.96724427	    -22.32890508	     -7.37208026	     -6.04122513	      6.16096462	     42.48764447	    -26.63467954	    -11.53633765	     -1.67379149
      3.16000000	     10.53073740	      9.05709978	     -7.02404492	     -0.62538197	      0.97526757	      0.06155595	    -16.77695908	    -11.10494762	     -9.40826453	    -23.19273484	     15.45455370	      2.88282704	     12.73131383	     11.47476522	      9.13288664	    -22.23027032	     -7.72189587	     -6.34662022	      5.68229390	     42.99157188	    -26.61811902	    -11.73712131	     -1.64526690
      3.16500000	     10.49357434	      9.19055221	     -7.02998863	     -0.61998330	      0.97552248	      0.06088298	    -16.70190963	    -11.34539881	     -9.23038704	    -23.81726902	     14.95827934	      2.69681318	     13.06652188	     11.47571660	      9.30357287	    -21.94406381	     -8.12955049	     -6.55777049	      5.02330130	     42.95104932	    -26.57026244	    -11.90178970	     -1.67266411
      3.17000000	     10.44050522	      9.33133852	     -7.01985337	     -0.61457520	      0.97581223	      0.06023650	    -16.55982117	    -11.58762623	     -9.05369482	    -24.50388501	     14.13307370	      2.27154033	     15.56066775	     11.51862621	      9.45926245	    -21.72424356	     -8.60544707	     -6.71556482	      4.49202118	     43.14676774	    -26.50703179	    -12.07353796	     -1.70440150
      3.17500000	     10.38071511	      9.45608685	     -6.98854660	     -0.60919278	      0.97614210	      0.05951625	    -16.35282783	    -11.82252160	     -8.88396775	    -25.31030379	     13.50934746	      2.06400048	     16.14047754	     11.58447106	      9.60484933	    -21.39153627	     -9.12638608	     -6.78887592	      3.77225331	     43.03298887	    -26.44311375	    -12.21518321	     -1.74092999
      3.18000000	     10.36446661	      9.58576353	     -7.01789668	     -0.60381383	      0.97658723	      0.05891728	    -16.12263356	    -12.07309687	     -8.58600303	    -26.17380495	     12.56591020	      1.58319609	     18.57273466	     11.60550309	      9.73597650	    -21.18181923	     -9.66279299	     -6.78956649	      3.31903228	     42.76908196	    -26.41805135	    -12.38933772	     -1.72540223
      3.18500000	     10.28372989	      9.69428915	     -6.98254489	     -0.59848631	      0.97696401	      0.05814751	    -15.76255919	    -12.30120352	     -8.34858497	    -27.17454108	     11.82063712	      1.33863947	     19.21941406	     11.72446188	      9.85527565	    -20.81230327	    -10.26460213	     -6.74524856	      2.59656635	     42.55957817	    -26.33742716	    -12.50287321	     -1.74239476
      3.19000000	     10.29118763	      9.81438215	     -7.02565629	     -0.59312412	      0.97749932	      0.05756946	    -15.43201218	    -12.55262217	     -7.99027751	    -28.21389641	     10.74385443	      0.80046960	     21.66472644	     11.73073417	      9.97494770	    -20.58943206	    -10.84399338	     -6.58879666	      2.19862996	     41.94635360	    -26.33566239	    -12.67316061	     -1.69842351
      3.19500000	     10.18896647	      9.92548110	     -6.98876533	     -0.58785096	      0.97787967	      0.05680179	    -14.91317014	    -12.78168408	     -7.67042442	    -29.40616329	      9.90052506	      0.49796254	     22.39626876	     11.88912154	     10.09313790	    -20.18274866	    -11.48666278	     -6.43810570	      1.52970378	     41.63700347	    -26.23317778	    -12.78854613	     -1.70849289
      3.20000000	     10.18880992	     10.01839542	     -7.03401818	     -0.58256274	      0.97843811	      0.05619385	    -14.44075138	    -13.00983532	     -7.26017136	    -30.62214303	      8.70471993	     -0.04935278	     24.64419205	     11.90265675	     10.19043353	    -19.96705829	    -12.07545650	     -6.18415491	      1.19788490	     40.76987634	    -26.22801989	    -12.92324693	     -1.62759096
